<?xml version="1.0" encoding="utf-8" standalone="no"?>
<!DOCTYPE svg PUBLIC "-//W3C//DTD SVG 1.1//EN"
  "http://www.w3.org/Graphics/SVG/1.1/DTD/svg11.dtd">
<svg xmlns:xlink="http://www.w3.org/1999/xlink" width="155.52pt" height="155.52pt" viewBox="0 0 155.52 155.52" xmlns="http://www.w3.org/2000/svg" version="1.1">
 <metadata>
  <rdf:RDF xmlns:dc="http://purl.org/dc/elements/1.1/" xmlns:cc="http://creativecommons.org/ns#" xmlns:rdf="http://www.w3.org/1999/02/22-rdf-syntax-ns#">
   <cc:Work>
    <dc:type rdf:resource="http://purl.org/dc/dcmitype/StillImage"/>
    <dc:date>2026-06-22T17:51:51.938982</dc:date>
    <dc:format>image/svg+xml</dc:format>
    <dc:creator>
     <cc:Agent>
      <dc:title>Matplotlib v3.10.9, https://matplotlib.org/</dc:title>
     </cc:Agent>
    </dc:creator>
   </cc:Work>
  </rdf:RDF>
 </metadata>
 <defs>
  <style type="text/css">*{stroke-linejoin: round; stroke-linecap: butt}</style>
 </defs>
 <g id="figure_1">
  <g id="patch_1">
   <path d="M 0 155.52 
L 155.52 155.52 
L 155.52 0 
L 0 0 
z
" style="fill: #ffffff"/>
  </g>
  <g id="axes_1">
   <g id="text_1">
    <!-- [ -->
    <g style="fill: #1e2a33" transform="translate(30.2334 102.24) scale(0.96 -0.96)">
     <defs>
      <path id="SpaceGrotesk-Light-5b" d="M 998 -1472 
Q 806 -1472 684 -1344 
Q 563 -1216 563 -1030 
L 563 4294 
Q 563 4480 684 4608 
Q 806 4736 998 4736 
L 1958 4736 
L 1958 4403 
L 1107 4403 
Q 934 4403 934 4211 
L 934 -947 
Q 934 -1139 1107 -1139 
L 1958 -1139 
L 1958 -1472 
L 998 -1472 
z
" transform="scale(0.015625)"/>
     </defs>
     <use xlink:href="#SpaceGrotesk-Light-5b"/>
    </g>
   </g>
   <g id="text_2">
    <!-- AI -->
    <g style="fill: #5c9ce0" transform="translate(52.706719 92.26) scale(0.58 -0.58)">
     <defs>
      <path id="SpaceGrotesk-Light-41" d="M 179 0 
L 1645 4480 
L 2374 4480 
L 3840 0 
L 3411 0 
L 3027 1190 
L 992 1190 
L 608 0 
L 179 0 
z
M 1107 1562 
L 2912 1562 
L 2048 4237 
L 1971 4237 
L 1107 1562 
z
" transform="scale(0.015625)"/>
      <path id="SpaceGrotesk-Light-49" d="M 550 0 
L 550 4480 
L 960 4480 
L 960 0 
L 550 0 
z
" transform="scale(0.015625)"/>
     </defs>
     <use xlink:href="#SpaceGrotesk-Light-41"/>
     <use xlink:href="#SpaceGrotesk-Light-49" transform="translate(62.799988 0)"/>
    </g>
   </g>
   <g id="text_3">
    <!-- ] -->
    <g style="fill: #1e2a33" transform="translate(93.9966 102.24) scale(0.96 -0.96)">
     <defs>
      <path id="SpaceGrotesk-Light-5d" d="M 128 -1472 
L 128 -1139 
L 979 -1139 
Q 1152 -1139 1152 -947 
L 1152 4211 
Q 1152 4403 979 4403 
L 128 4403 
L 128 4736 
L 1088 4736 
Q 1280 4736 1401 4608 
Q 1523 4480 1523 4294 
L 1523 -1030 
Q 1523 -1216 1401 -1344 
Q 1280 -1472 1088 -1472 
L 128 -1472 
z
" transform="scale(0.015625)"/>
     </defs>
     <use xlink:href="#SpaceGrotesk-Light-5d"/>
    </g>
   </g>
  </g>
 </g>
</svg>
