<?xml version="1.0" encoding="utf-8" standalone="no"?>
<!DOCTYPE svg PUBLIC "-//W3C//DTD SVG 1.1//EN"
  "http://www.w3.org/Graphics/SVG/1.1/DTD/svg11.dtd">
<svg xmlns:xlink="http://www.w3.org/1999/xlink" width="216pt" height="216pt" viewBox="0 0 216 216" xmlns="http://www.w3.org/2000/svg" version="1.1">
 <metadata>
  <rdf:RDF xmlns:dc="http://purl.org/dc/elements/1.1/" xmlns:cc="http://creativecommons.org/ns#" xmlns:rdf="http://www.w3.org/1999/02/22-rdf-syntax-ns#">
   <cc:Work>
    <dc:type rdf:resource="http://purl.org/dc/dcmitype/StillImage"/>
    <dc:date>2026-06-20T00:49:41.255071</dc:date>
    <dc:format>image/svg+xml</dc:format>
    <dc:creator>
     <cc:Agent>
      <dc:title>Matplotlib v3.10.9, https://matplotlib.org/</dc:title>
     </cc:Agent>
    </dc:creator>
   </cc:Work>
  </rdf:RDF>
 </metadata>
 <defs>
  <style type="text/css">*{stroke-linejoin: round; stroke-linecap: butt}</style>
 </defs>
 <g id="figure_1">
  <g id="patch_1">
   <path d="M 0 216 
L 216 216 
L 216 0 
L 0 0 
L 0 216 
z
" style="fill: none"/>
  </g>
  <g id="axes_1">
   <g id="text_1">
    <!-- [ -->
    <g style="fill: #1e2a33" transform="translate(26.314687 146.25) scale(1.5 -1.5)">
     <defs>
      <path id="SpaceGrotesk-Light-5b" d="M 998 -1472 
Q 806 -1472 684 -1344 
Q 563 -1216 563 -1030 
L 563 4294 
Q 563 4480 684 4608 
Q 806 4736 998 4736 
L 1958 4736 
L 1958 4403 
L 1107 4403 
Q 934 4403 934 4211 
L 934 -947 
Q 934 -1139 1107 -1139 
L 1958 -1139 
L 1958 -1472 
L 998 -1472 
z
" transform="scale(0.015625)"/>
     </defs>
     <use xlink:href="#SpaceGrotesk-Light-5b"/>
    </g>
   </g>
   <g id="text_2">
    <!-- P -->
    <g style="fill: #5c9ce0" transform="translate(78 133) scale(1 -1)">
     <defs>
      <path id="SpaceGrotesk-Light-50" d="M 550 0 
L 550 4480 
L 2208 4480 
Q 2605 4480 2921 4329 
Q 3238 4179 3424 3897 
Q 3610 3616 3610 3213 
L 3610 3136 
Q 3610 2733 3421 2448 
Q 3232 2163 2915 2016 
Q 2598 1869 2208 1869 
L 960 1869 
L 960 0 
L 550 0 
z
M 960 2240 
L 2163 2240 
Q 2643 2240 2921 2477 
Q 3200 2714 3200 3142 
L 3200 3206 
Q 3200 3642 2928 3875 
Q 2656 4109 2163 4109 
L 960 4109 
L 960 2240 
z
" transform="scale(0.015625)"/>
     </defs>
     <use xlink:href="#SpaceGrotesk-Light-50"/>
    </g>
   </g>
   <g id="text_3">
    <!-- ] -->
    <g style="fill: #1e2a33" transform="translate(140.794688 146.25) scale(1.5 -1.5)">
     <defs>
      <path id="SpaceGrotesk-Light-5d" d="M 128 -1472 
L 128 -1139 
L 979 -1139 
Q 1152 -1139 1152 -947 
L 1152 4211 
Q 1152 4403 979 4403 
L 128 4403 
L 128 4736 
L 1088 4736 
Q 1280 4736 1401 4608 
Q 1523 4480 1523 4294 
L 1523 -1030 
Q 1523 -1216 1401 -1344 
Q 1280 -1472 1088 -1472 
L 128 -1472 
z
" transform="scale(0.015625)"/>
     </defs>
     <use xlink:href="#SpaceGrotesk-Light-5d"/>
    </g>
   </g>
  </g>
 </g>
</svg>
